<svg version="1.1" baseProfile="tiny" id="Man_1" xmlns="http://www.w3.org/2000/svg" xmlns:xlink="http://www.w3.org/1999/xlink" x="0px" y="0px" viewBox="0 0 300 900" xml:space="preserve">
<g>
	<polygon points="271.6,803.1 272.1,812.5 243.4,815.5 211.1,803.8 195.4,799.3 195.3,794.1  "/>
	<polygon points="40.9,800 40.4,809.3 69.2,812.3 101.4,800.6 117.2,796.7 117.2,790.9  "/>
	<path fill="#5F3817" d="M38.7,372.8l28,3.9l23.8-40.2c0,0-31.4-21.8-32.2-20.4c-8.4,14.3-4.1,16.6-27.3,54.6"/>
	<polygon fill="#5F3817" points="271.2,391.6 244.9,402.5 199.6,315.9 254.9,334.3  "/>
	<path fill="#2C4352" d="M216.6,459.7l12.2,138.9l16.1,135.9l2.6,19.3l-4.5,20.7l-48.1-1.3L184.2,751l4-21.1l-3.2-78.9l-26.1-100.3   l-8.6-10.2l-4,5.7l-21.4,103.1c0,0,2,57.3,3.6,59.8c1.6,2.5,5.9,18.6,5.9,18.6l-8.7,11l-0.8,24.4L66.8,762l-8.6-16.9l6.9-16.1   c0,0-2.2-22.8,0-22c2.2,0.8,8-41.3,7.4-43.1c-0.2-0.5-0.1-43.9-0.1-43.9s3.3-36,10.8-128.4l1.9-35.2L216.6,459.7z"/>
	<path fill="#FFFFFF" d="M183.8,264.6c2.4,1,53.3,29.7,53.3,29.7l27.2,50.8l-27.2,26.1l-6,9.7l-13.6-25.2l-4,31.4l3.4,41l-0.1,26.4   l7.4,46.3l-20.2,3.3l-20.5-6.7l-49.2,2.7l-40.4-8.4l-14,9.8l-3.6-7.1l8.4-24.5l2-43.9l3.9-36l-0.1-38.5l-15.2,20.8L35,348.1   l36.4-56.3l53.1-26.6l7.1-8.7l48.3,3.7L183.8,264.6z"/>
	<polygon fill="#FFFFFF" points="271.6,801.2 272.1,810.6 243.4,813.6 211.1,801.9 195.4,797.4 195.3,792.2  "/>
	<path fill="#5F3817" d="M177.2,246.7h-44.9l-6.7,19.1c0,0,15.9,27.8,31.8,27.8c15.5,0,28.8-26,28.8-26L177.2,246.7z"/>
	<polygon fill="#5F3817" points="116.1,438.9 124.6,446.5 135.4,446.2 151.8,442.7 155.8,425.4 125.3,426.3 66.7,376.6 36.8,390.1     "/>
	<polygon points="191.5,760.6 195.1,769.9 193.2,779.6 195.3,792.2 210.8,796.8 242.9,806.2 272.1,804.4 270.1,797.2 251.2,781.7    243.6,770.1 248.2,761 239.4,766.6 244.2,754.4 216.4,754.4 217.3,766.1 210.7,758.1  "/>
	<path fill="#434345" d="M218.7,768.8l7.3,7.6l6.6,11.6l17.2,5.2l5.3-3.6c0,0-18-17.9-16.9-18.8c1.1-0.9,1.2-3.6,1.2-3.6   L218.7,768.8z"/>
	<polygon fill="#FFFFFF" points="40.9,797.9 40.4,807.2 69.2,810.2 101.4,798.5 117.2,794.6 117.2,788.8  "/>
	<polygon points="121,757.2 117.4,766.5 115.7,778.3 117.2,788.8 101.8,793.4 69.6,802.8 40.4,801 42.4,793.8 61.3,778.3 69,766.8    64.3,757.6 73.1,763.2 68.4,751 96.1,751 95.2,762.7 101.8,754.8  "/>
	<path fill="#434345" d="M93.8,764.7l-7.3,7.6L80,784l-17.2,5.2l-5.3-3.6c0,0,18-17.9,16.9-18.8c-1.1-0.9-1.2-3.6-1.2-3.6   L93.8,764.7z"/>
	<g>
		<polygon fill="#CAD93F" points="193.6,421.3 164.7,472.3 165,473.8 238.8,518.1 239.7,517.2 264.2,468.6   "/>
		<polygon points="193.6,419.9 164.7,472.3 239.7,517.2 264.2,468.6   "/>
		<polygon fill="#23292B" points="196.1,424.7 170.8,470.8 182.1,476.4 206.9,432.1   "/>
		<g>
			<g>
				<path fill="#CAD93F" d="M183.8,455.5l0.4-0.7c0.2-0.4,0.5-0.4,0.9-0.2c0.2,0.1,0.3,0.2,0.3,0.3c0.2-0.1,0.4,0,0.6,0.1      c0.3,0.2,0.4,0.5,0.3,0.8l-0.3,0.7L183.8,455.5z M184.8,455.6l0.2-0.4c0.1-0.2,0.1-0.3-0.1-0.4c-0.2-0.1-0.4-0.1-0.5,0.1      l-0.2,0.4L184.8,455.6z M185.7,456l0.2-0.4c0.1-0.2,0.1-0.3-0.1-0.4c-0.2-0.1-0.4-0.1-0.5,0.1l-0.2,0.4L185.7,456z"/>
				<path fill="#CAD93F" d="M185.1,453.3c-0.1-0.1-0.1-0.1-0.1-0.2c0-0.1,0.1-0.1,0.2-0.1l2,0.3c0.1,0,0.1,0.1,0.1,0.2      c0,0.1-0.1,0.1-0.2,0.1l-0.4-0.1l-0.3,0.5l0.3,0.2c0.1,0,0.1,0.1,0.1,0.2c0,0.1-0.1,0.1-0.2,0.1L185.1,453.3z M185.6,453.4      L185.6,453.4l0.6,0.5l0.2-0.4L185.6,453.4z"/>
				<path fill="#CAD93F" d="M186.1,451.1l0.2-0.3l1.9,0.9c0.1,0,0.1,0.1,0.1,0.2c0,0.1-0.1,0.1-0.2,0.1l-1.5-0.7v0l0.2,0.4l0,0      c0.1,0,0.1,0.1,0.1,0.2c0,0.1-0.1,0.1-0.2,0.1l0,0l-0.5,0.1v0l1.5,0.7c0.1,0,0.1,0.1,0.1,0.2c0,0.1-0.1,0.1-0.2,0.1l-1.9-0.9      l0.2-0.3l0.6-0.1L186.1,451.1z"/>
				<path fill="#CAD93F" d="M186.5,450.2l0.4-0.7c0.2-0.4,0.5-0.4,0.9-0.2c0.2,0.1,0.3,0.2,0.3,0.4c0.2-0.1,0.4,0,0.6,0.1      c0.3,0.2,0.4,0.5,0.3,0.8l-0.4,0.7L186.5,450.2z M187.5,450.4l0.2-0.4c0.1-0.2,0.1-0.3-0.1-0.4c-0.2-0.1-0.4-0.1-0.5,0.1      l-0.2,0.4L187.5,450.4z M188.4,450.8l0.2-0.4c0.1-0.2,0.1-0.3-0.1-0.4c-0.2-0.1-0.4-0.1-0.5,0.1l-0.2,0.4L188.4,450.8z"/>
				<path fill="#CAD93F" d="M188.8,447.6c0.1,0,0.2,0,0.3,0.1c0.1,0.1,0.2,0.1,0.3,0.2l0.4,0.4c0.1,0.1,0.1,0.3,0.1,0.4      c-0.1,0.1-0.2,0.2-0.4,0.2l-0.6,0c-0.1,0-0.2,0-0.3-0.1c-0.1-0.1-0.2-0.1-0.3-0.2l-0.4-0.5c-0.1-0.1-0.1-0.3-0.1-0.4      c0.1-0.1,0.2-0.2,0.4-0.2L188.8,447.6z M188.1,447.9c-0.1,0-0.1,0-0.1,0c0,0.1,0,0.1,0,0.1l0.4,0.4c0.1,0.1,0.1,0.1,0.2,0.2      c0.1,0,0.1,0,0.2,0l0.6,0c0,0,0.1,0,0.1,0c0,0,0-0.1,0-0.1l-0.4-0.5c0,0-0.1-0.1-0.2-0.1c-0.1,0-0.1,0-0.2,0H188.1z"/>
				<path fill="#CAD93F" d="M189.7,445.9c0.1,0,0.2,0,0.3,0.1c0.1,0.1,0.2,0.1,0.3,0.2l0.4,0.4c0.1,0.1,0.1,0.3,0.1,0.4      c-0.1,0.1-0.2,0.2-0.4,0.2l-0.6,0c-0.1,0-0.2,0-0.4-0.1c-0.1-0.1-0.2-0.1-0.2-0.2l-0.4-0.5c-0.1-0.1-0.1-0.3-0.1-0.4      c0.1-0.1,0.2-0.2,0.4-0.2L189.7,445.9z M189,446.1c-0.1,0-0.1,0-0.1,0c0,0.1,0,0.1,0,0.1l0.4,0.4c0.1,0.1,0.1,0.1,0.2,0.2      c0.1,0,0.1,0,0.2,0l0.6,0c0,0,0.1,0,0.1,0c0,0,0-0.1,0-0.1l-0.4-0.5c0-0.1-0.1-0.1-0.1-0.1c-0.1,0-0.1,0-0.2,0L189,446.1z"/>
			</g>
			<polygon points="185.8,455.4 185.5,455.9 184.4,455.4 184.7,454.9    "/>
			<polygon points="188.5,450.1 188.2,450.7 187.1,450.2 187.4,449.6    "/>
		</g>
		<polygon fill="#CAD93F" points="254.6,500.1 250.2,496.9 255.2,486.3 259.6,489.5   "/>
	</g>
	<g>
		<polygon fill="#5F3817" points="200.8,503 209.8,501.6 217.9,504.7 207.9,504.7   "/>
		<g>
			<path fill="#5F3817" d="M244.9,401.9c0.1,0.2-27.4,77.5-27.4,77.5l15.1,4.8l36.4-73.9L244.9,401.9z"/>
			<path fill="#5F3817" d="M217.6,479c-0.2,2.5-39.4,10.5-39.4,10.5l39.7,15.2l14.1-17.6l0.6-2.9L217.6,479z"/>
			<polygon fill="#5F3817" points="179.8,482.7 187.3,487.6 178.2,489.5    "/>
			<polygon fill="#5F3817" points="191.2,496.3 218.4,501.6 197.3,503.2    "/>
			<polygon fill="#5F3817" points="182.1,490.5 206.1,496.7 184.8,496.8    "/>
			<path fill="#5F3817" d="M208.4,483.1l0.1-4.1l-7.9-5.2l-1-5.8c0,0,13.4,6.3,13.9,6.6c0.5,0.4,5.4,4.5,5.4,4.5"/>
		</g>
	</g>
	<g>
		<polygon fill="#CAD93F" points="132.2,449.6 135.3,452.9 132,455.7 128.9,452.4   "/>
		<g>
			<g>
				<path fill="#CAD93F" d="M155.8,435.9c0,0.1,0,0.2-0.1,0.3 M155.6,436.1C155.6,436,155.6,436,155.6,436.1"/>
			</g>
		</g>
		<polygon points="134.6,454.1 172.8,422.7 176.5,416.1 169.7,418.2 130.9,450.2   "/>
		<path fill="#CAD93F" d="M150.2,436.8l0.4-0.4c0.2-0.2,0.5-0.2,0.6,0c0.1,0.1,0.1,0.2,0.1,0.3c0.2,0,0.3,0.1,0.4,0.2    c0.2,0.2,0.2,0.4,0,0.6l-0.4,0.4L150.2,436.8z M150.8,437.2l0.3-0.2c0.1-0.1,0.1-0.2,0-0.3c-0.1-0.1-0.2-0.2-0.4,0l-0.3,0.2    L150.8,437.2z M151.3,437.7l0.3-0.2c0.1-0.1,0.1-0.2,0-0.3c-0.1-0.1-0.2-0.2-0.4,0l-0.3,0.2L151.3,437.7z"/>
		<path fill="#CAD93F" d="M151.7,435.7c0,0,0-0.1,0-0.1c0,0,0.1,0,0.2,0l1.2,0.7c0,0,0,0.1,0,0.1c0,0-0.1,0-0.2,0l-0.2-0.1l-0.3,0.3    l0.1,0.2c0,0,0,0.1,0,0.1c0,0-0.1,0-0.1,0L151.7,435.7z M152,435.9L152,435.9l0.3,0.5l0.2-0.2L152,435.9z"/>
		<path fill="#CAD93F" d="M152.9,434.4l0.2-0.2l1,1c0,0,0,0.1,0,0.1c-0.1,0-0.1,0-0.1,0l-0.8-0.8v0l0.1,0.3l0,0c0,0,0.1,0.1,0,0.2    c-0.1,0-0.1,0-0.2,0l0,0l-0.3-0.1l0,0l0.8,0.8c0.1,0,0.1,0.1,0,0.1c-0.1,0.1-0.1,0-0.1,0l-1-1l0.2-0.2l0.4,0.1L152.9,434.4z"/>
		<path fill="#CAD93F" d="M153.5,434l0.4-0.4c0.2-0.2,0.4-0.2,0.6,0c0.1,0.1,0.1,0.2,0.1,0.3c0.2,0,0.3,0.1,0.4,0.2    c0.2,0.2,0.2,0.4,0,0.6l-0.4,0.4L153.5,434z M154.1,434.3l0.3-0.2c0.1-0.1,0.1-0.2,0-0.3c-0.1-0.1-0.2-0.2-0.4,0l-0.3,0.2    L154.1,434.3z M154.6,434.8l0.3-0.2c0.1-0.1,0.1-0.2,0-0.3c-0.1-0.1-0.2-0.2-0.3,0l-0.3,0.2L154.6,434.8z"/>
		<path fill="#CAD93F" d="M155.6,432.8c0.1,0,0.1,0.1,0.2,0.1c0.1,0.1,0.1,0.1,0.1,0.2l0.1,0.4c0,0.1,0,0.2-0.1,0.3    c-0.1,0.1-0.2,0.1-0.3,0l-0.4-0.1c-0.1,0-0.2-0.1-0.2-0.1c-0.1-0.1-0.1-0.1-0.1-0.2l-0.1-0.4c0-0.1,0-0.2,0.1-0.3    c0.1-0.1,0.2-0.1,0.3,0L155.6,432.8z M155.2,432.8C155.1,432.8,155.1,432.8,155.2,432.8C155,432.9,155,432.9,155.2,432.8l0,0.5    c0,0.1,0,0.1,0.1,0.1c0,0,0.1,0.1,0.1,0.1l0.4,0.1c0,0,0.1,0,0.1,0c0,0,0-0.1,0-0.1l-0.1-0.4c0,0,0-0.1-0.1-0.1    c0,0-0.1-0.1-0.1-0.1L155.2,432.8z"/>
		<path fill="#CAD93F" d="M157.1,432.8c-0.1,0.1-0.2,0.1-0.3,0l-0.4-0.1c-0.1,0-0.2-0.1-0.2-0.1c-0.1-0.1-0.1-0.1-0.1-0.2l-0.1-0.4    c0-0.1,0-0.2,0.1-0.3c0.1-0.1,0.2-0.1,0.3,0l0.4,0.1c0.1,0,0.1,0.1,0.2,0.1c0.1,0.1,0.1,0.1,0.1,0.2l0.1,0.4"/>
		<path d="M156.8,432.2c0,0,0-0.1-0.1-0.1c0,0-0.1-0.1-0.2-0.1l-0.4-0.1c0,0-0.1,0-0.1,0c0,0,0,0.1,0,0.1l0.1,0.4    c0,0.1,0,0.1,0.1,0.1c0,0,0.1,0.1,0.1,0.1l0.4,0.1c0,0,0.1,0,0.1,0"/>
		<polygon points="151.6,437.2 151.2,437.5 150.6,436.9 151,436.6   "/>
		<polygon points="154.8,434.4 154.5,434.7 153.9,434.1 154.2,433.8   "/>
	</g>
	<polygon fill="#5F3817" points="124.6,446.5 136.1,450.8 136.2,453.8 142.6,451.2 145.8,437.9  "/>
	<polygon fill="#5F3817" points="143.8,449.6 150.2,449.2 154.8,435.9 152.4,428.2 145.4,429.4 144.6,438.5  "/>
	<path fill="#5F3817" d="M153.9,425.3l10.3,0c0,0,8.7,10.3,8.9,10.8c0.1,0.6-6.4-0.3-6.4-0.3l-5.6-4.8l-7.5-0.2L153.9,425.3z"/>
	<path fill="#5F3817" d="M153.1,430.7c3.1,1,7.2,8.5,7.2,8.5l-3.7,7l-4.7-1"/>
	<polygon fill="#5F3817" points="132.1,428.2 149.5,421.3 157.2,425.5  "/>
	<path fill="#5F3817" d="M244.9,401.9l26.3-10.3c0,0,2.2,9.2,2.2,9.9c0,0.6-6.1,12.1-6.1,12.1L244.9,401.9z"/>
	<path fill="#5F3817" d="M66.7,376.6l-35.7-6c0,0-3.9,7.7-4.2,8.3c-2.1,4.4,12.9,12.9,12.9,12.9L66.7,376.6z"/>
	<g>
		<path fill="#72C9C7" d="M172.2,340.2c-0.6,0.2-1.3,0.4-2.1,0.5c-0.8,0.1-1.5,0.2-2.2,0.2c-1.5,0-2.5-0.4-2.9-1.2    c-0.5-0.8-0.7-1.8-0.7-3.1V329h7.9v-5.1h-7.9l0,0v-5.5l-6.6,2.9l0,0v10.9c-0.6-0.7-1.3-1.3-2-2.1c-0.7-0.7-1.4-1.4-2-2.1    c-0.6-0.7-1.3-1.4-1.8-2c-0.5-0.6-1-1.1-1.4-1.6l-5.6,2.4c0.8,0.8,1.5,1.6,2.2,2.3c1.5,1.5,3.1,3.1,4.9,4.8    c-0.9,0.8-1.8,1.6-2.7,2.7c-0.9,1-1.9,2.1-2.7,3.2c-0.9,1.1-1.7,2.2-2.4,3.3s-1.4,2.1-1.9,3h7.6c0.5-0.7,1-1.5,1.6-2.4    c0.6-0.9,1.2-1.7,1.9-2.6c0.7-0.9,1.4-1.7,2.1-2.5c0.7-0.8,1.5-1.5,2.2-2v0.2c0,0,0,0,0,0.1c0,1.4,0.1,2.7,0.4,3.8    c0.3,1.2,0.8,2.2,1.5,3c0.7,0.8,1.7,1.5,2.8,1.9c0.6,0.2,1.2,0.4,1.9,0.5c0.8,0.1,1.6,0.2,2.6,0.2c1.4,0,2.6-0.1,3.6-0.3    c1-0.2,1.9-0.5,2.7-0.8L172.2,340.2z"/>
	</g>
	<polygon fill="#FFFFFF" points="217.5,476 225.3,480.3 228.4,476.4 219.8,471  "/>
	<polygon fill="#FFFFFF" points="239,481.8 233.6,488.4 223.2,481.1 228.5,474.4  "/>
	<polygon points="237.1,482.1 233.4,486.7 225.9,481.4 229.6,476.8  "/>
	<polygon points="223.7,774.5 226,776.9 242.6,777.4 239.6,774.5  "/>
	<polygon points="228.6,778.6 230.8,780.9 247.4,781.4 244.4,778.6  "/>
	<polygon points="233,782.7 235.2,785.1 251.8,785.6 248.8,782.7  "/>
	<polygon points="237,786.5 239.3,788.9 255.9,789.4 252.9,786.5  "/>
	<polygon points="90.4,767.1 88.1,769.4 71.6,769.9 74.5,767.1  "/>
	<polygon points="85.6,771.1 83.3,773.5 66.7,774 69.7,771.1  "/>
	<polygon points="81.2,775.2 78.9,777.6 62.3,778.1 65.3,775.2  "/>
	<polygon points="77.1,779.1 74.8,781.4 58.2,782 61.2,779.1  "/>
	<g>
		<path fill="#FFFFFF" d="M84.9,759.1c-0.2,0.1-0.4,0.1-0.6,0.1c-0.2,0-0.4,0.1-0.6,0.1c-0.4,0-0.7-0.1-0.8-0.3    c-0.1-0.2-0.2-0.5-0.2-0.8v-2.1h2.1v-1.4h-2.1l0,0v-1.5l-1.8,0.8l0,0v3c-0.2-0.2-0.4-0.4-0.5-0.6c-0.2-0.2-0.4-0.4-0.6-0.6    c-0.2-0.2-0.3-0.4-0.5-0.5c-0.1-0.2-0.3-0.3-0.4-0.4l-1.5,0.7c0.2,0.2,0.4,0.4,0.6,0.6c0.4,0.4,0.8,0.8,1.3,1.3    c-0.2,0.2-0.5,0.4-0.7,0.7c-0.3,0.3-0.5,0.6-0.7,0.9c-0.2,0.3-0.5,0.6-0.7,0.9c-0.2,0.3-0.4,0.6-0.5,0.8h2.1    c0.1-0.2,0.3-0.4,0.4-0.7c0.2-0.2,0.3-0.5,0.5-0.7c0.2-0.2,0.4-0.5,0.6-0.7c0.2-0.2,0.4-0.4,0.6-0.6v0.1c0,0,0,0,0,0    c0,0.4,0,0.7,0.1,1c0.1,0.3,0.2,0.6,0.4,0.8c0.2,0.2,0.5,0.4,0.8,0.5c0.2,0.1,0.3,0.1,0.5,0.1c0.2,0,0.4,0.1,0.7,0.1    c0.4,0,0.7,0,1-0.1c0.3-0.1,0.5-0.1,0.7-0.2L84.9,759.1z"/>
	</g>
	<g>
		<path fill="#FFFFFF" d="M234.4,762.9c-0.2,0.1-0.4,0.1-0.6,0.1c-0.2,0-0.4,0-0.6,0c-0.4,0-0.7-0.1-0.8-0.3    c-0.1-0.2-0.2-0.5-0.2-0.8v-2.1h2.2v-1.4h-2.2l0,0v-1.5l-1.8,0.8l0,0v3c-0.2-0.2-0.4-0.4-0.5-0.6c-0.2-0.2-0.4-0.4-0.5-0.6    c-0.2-0.2-0.3-0.4-0.5-0.5c-0.1-0.2-0.3-0.3-0.4-0.4l-1.5,0.7c0.2,0.2,0.4,0.4,0.6,0.6c0.4,0.4,0.9,0.8,1.3,1.3    c-0.2,0.2-0.5,0.4-0.7,0.7c-0.3,0.3-0.5,0.6-0.8,0.9c-0.2,0.3-0.5,0.6-0.7,0.9c-0.2,0.3-0.4,0.6-0.5,0.8h2.1    c0.1-0.2,0.3-0.4,0.4-0.7c0.2-0.2,0.3-0.5,0.5-0.7c0.2-0.2,0.4-0.5,0.6-0.7c0.2-0.2,0.4-0.4,0.6-0.6v0.1c0,0,0,0,0,0    c0,0.4,0,0.7,0.1,1c0.1,0.3,0.2,0.6,0.4,0.8c0.2,0.2,0.4,0.4,0.8,0.5c0.2,0.1,0.3,0.1,0.5,0.1c0.2,0,0.5,0.1,0.7,0.1    c0.4,0,0.7,0,1-0.1c0.3-0.1,0.5-0.1,0.7-0.2L234.4,762.9z"/>
	</g>
	<polygon fill="#CFD1D0" points="121.9,434.8 120.7,434.3 122.6,430.9 123.7,431.5  "/>
	<polygon fill="#CFD1D0" points="116.8,440.2 115.9,439.4 118.2,437 119.1,437.8  "/>
	<polygon fill="#DDDEDD" points="123.7,431.4 122.6,430.9 124.2,427.5 125.3,427.9  "/>
	<polygon points="123.8,431 122.9,430.7 124.2,427.9 125.1,428.2  "/>
	<polygon fill="#CFD1D0" points="125.2,427.7 124,427.7 124.1,424.6 125.4,424.6  "/>
	<polygon fill="#DDDEDD" points="119.2,437.8 118.2,437.1 120.7,434.1 121.7,434.9  "/>
	<polygon points="119.2,437.6 118.4,437 120.6,434.4 121.4,435  "/>
	<image width="22" height="31" xlink:href="B591A61215321A02.png" transform="matrix(1 0 0 1 216 340)">
	</image>
	<path fill="#D4D6D5" d="M115.2,457.2c-1.8,1.8-24.7,33.4-24.7,33.4l-11.1,5.7L115.2,457.2z"/>
	<polygon fill="#D4D6D5" points="134,483.7 135.3,496.3 106.8,490 131,491.9  "/>
	<image width="48" height="15" xlink:href="B591A61215321A06.png" transform="matrix(1 0 0 1 135 288)">
	</image>
	<image width="11" height="71" xlink:href="B591A61215321A01.png" transform="matrix(1 0 0 1 204 359)">
	</image>
	<image width="77" height="62" xlink:href="B591A61215321A03.png" transform="matrix(1 0 0 1 46 370)">
	</image>
	<image width="38" height="101" xlink:href="B591A61215321A00.png" transform="matrix(1 0 0 1 222 365)">
	</image>
	<path fill="#D4D6D5" d="M96.3,451.1c0.3,1.6-8,14.8-8,14.8l21.9-25.7L96.3,451.1z"/>
	<image width="23" height="35" xlink:href="B591A61215321A0E.png" transform="matrix(1 0 0 1 137 259)">
	</image>
	<image width="13" height="19" xlink:href="B591A61215321A05.png" transform="matrix(1 0 0 1 153 267)">
	</image>
	<path fill="#5F3817" d="M232.2,186.2c-1.7-7.4-9.3-8.1-11.7-8.3c0.2-2.8,0.3-5.4,0.3-7.6c1.4-50.2-28-83.4-62.8-84.1l0,0   c-35.3,0-65.4,31.5-64,82.3c0.1,2.2,0.2,4.8,0.3,7.6c-2.4,0.1-10,0.9-11.7,8.3c-1.2,5.2,4.6,14.8,4.9,15.4   c0.3,0.6,3.4,10.1,4.3,13.6c0.6,2.6,1.6,5,4.4,5.4c1.5,0.2,2.2-0.8,2.5-1.9c0.2,1.2,0.4,2.3,0.6,3.4c1.3,8.1,1.3,16.7,20.5,32.3   c5.9,4.8,14.8,16.7,21.2,20.5c4.8,2.8,10.6,0.7,15.8,0.4v1.7c5.5,0,10.9,1.8,16-1.2c6.5-3.8,16.2-14.8,22.2-19.6   c19.2-15.6,19.2-24.2,20.5-32.3c0.2-1.1,0.4-2.2,0.6-3.4c0.3,1,1,2.1,2.5,1.9c2.8-0.4,3.8-2.8,4.4-5.4c0.8-3.5,4-13,4.3-13.6   C227.6,201,233.4,191.4,232.2,186.2z"/>
	<path fill="#231F20" d="M161.7,157.4c0,0,2.6-5.5,5.6-7.7c3-2.1,8.7-3,17.6-2.2c8.9,0.9,14.7,5.3,15.4,6.6c0.7,1.3,5,6.4,5,6.4   s-5.8-2.6-15.5-5.7C178,151.1,161.7,157.4,161.7,157.4z"/>
	<image width="28" height="14" xlink:href="B591A61215321A07.png" transform="matrix(1 0 0 1 169 161)">
	</image>
	<path fill="#3B2416" d="M169.4,165.7c-0.3,0.4,3.6-6.8,13.4-5c8.5,1.6,15.7,8.7,17.2,9.3c1.5,0.7-16-9.7-22.9-8.7   c-4.7,0.7-7.9,5.3-7.9,5.3"/>
	<path fill="#231F20" d="M169.7,164.5c-0.4,0.4,3.7-7.4,13.4-5c8.4,2.1,15.1,9.7,16.6,10.5c1.5,0.8-10.7-10.2-21.4-9.5   c-4.7,0.3-8.8,5.2-8.8,5.2"/>
	<path fill="#3B2416" d="M195.9,169.5c0,0.7-8.9,5.5-13.1,5.5c-4.4,0.1-8.9-2.5-10.6-3.9c-2.1-1.7-2.6-3.2-2.4-3   c0,0,5.3,4.5,11.5,4.4C188.5,172.3,195.9,169.5,195.9,169.5z"/>
	<path fill="#231F20" d="M186,177.3c0,0.8-0.6,1.4-1.5,1.4c-0.8,0-1.4-0.6-1.4-1.4c0-0.8,0.7-1.4,1.4-1.4   C185.3,175.8,186,176.5,186,177.3z"/>
	<path fill="#3B2416" d="M196.5,168.1l4.9,1.9c0,0-2.9-0.8-3.4-1C197.4,168.9,196.5,168.1,196.5,168.1z"/>
	<path fill="#3B2416" d="M196.3,168l7.7,1.3c0,0-4.5-0.2-5.3-0.3C197.9,168.8,196.3,168,196.3,168z"/>
	<path fill="#3B2416" d="M172.3,178.7c0,0,14,17.9,15.9,19.3c1.5,1.1,2.4,1.8,8.8,7.6c1,0.9,5.6,4.8,5.8,5.7c1,3.8-3.2,7.7-3.2,7.7   s0.7,0,2.3-1.7c1.3-1.4,2.1-4.8,2.1-4.9c0-3.6-5.8-6.2-7.9-8.3c-1.9-2-6.3-5.2-7.9-6.7C186.7,195.9,172.3,178.7,172.3,178.7z"/>
	<path fill="#2F1809" d="M210.4,197.5c-1.3-1.9-1.6-2.1-2.4-2.3c-0.2-0.1,1.2,0.6,2.7,4.1c1.3,2.9,2.7,8.6,2,10.2   c-1.1,2.4-3.4,5.4-3.8,7c-0.6,2.5-1.2,6.8-2.5,10.1c-1.4,3.3,3.9-9.5,3.3-9.5c-0.4,0,1.5-4,3-6.9c0.2-0.4,0.4-0.8,0.6-1.1   C214,208,212.5,200.4,210.4,197.5z"/>
	<path fill="#3B2416" d="M212.8,210.4c-0.2,0.5,0,4.1-1.2,6c-1.2,1.9-3.6,5.9-3.6,5.9l2.4-7.4L212.8,210.4z"/>
	<path fill="#231F20" d="M149.8,157.9c0,0-3.3-5.5-6.3-7.6c-3-2.1-8.1-3.6-17-2.8c-8.9,0.9-15.2,6.1-15.9,7.4c-0.7,1.3-6,7.7-6,7.7   s7.3-4.8,17.1-7.8C131.4,151.9,149.8,157.9,149.8,157.9z"/>
	<image width="28" height="15" xlink:href="B591A61215321A04.png" transform="matrix(1 0 0 1 115 160)">
	</image>
	<path fill="#3B2416" d="M143.2,164.8c0.3,0.4-3.3-6.4-13.1-4.6c-8.5,1.6-15.7,8.7-17.3,9.4c-1.5,0.7,16.1-9.8,23-8.7   c4.7,0.7,10,6.2,10,6.2"/>
	<path fill="#231F20" d="M143.7,163.7c0.3,0.4-3.8-6.4-13.6-4.6c-8.5,1.6-15.7,8.7-17.3,9.4c-1.5,0.7,16.1-9.4,23-8.4   c4.7,0.7,9.1,5.8,9.1,5.8"/>
	<path fill="#3B2416" d="M116.2,169.4c0,0.7,8.9,3.9,13.1,3.8c4.4-0.1,9.1-1.4,10.8-2.9c2.1-1.8,8.5-6.7,2.3-3.1   c0,0-5.1,4.7-11.4,4.8C123.7,172,116.2,169.4,116.2,169.4z"/>
	<path fill="#3B2416" d="M115.5,168.2l-4.8,1.9c0,0,2.8-0.8,3.3-1C114.6,168.9,115.5,168.2,115.5,168.2z"/>
	<path fill="#3B2416" d="M115.7,168.1l-7.5,1.2c0,0,4.4-0.2,5.2-0.3C114.1,168.9,115.7,168.1,115.7,168.1z"/>
	<path fill="#3B2416" d="M132.2,184.9c0,0-4.6,12.5-6.4,13.9c-1.5,1.1-2,0.9-8.4,6.7c-1,0.9-5.6,4.8-5.8,5.7c-1,3.8,2.4,6.8,2.4,6.8   s-0.7,0-2-1.8c-1.1-1.6-1.7-3.7-1.7-3.9c0-3.6,5.8-6.2,7.9-8.3c1.9-2,6.3-5.2,7.9-6.7C127.6,195.9,132.2,184.9,132.2,184.9z"/>
	<image width="39" height="14" xlink:href="3E0D009D103DC295.png" transform="matrix(1 0 0 1 138 228)">
	</image>
	<path fill="#2F1809" d="M100.5,207.2c0,0,4.7,6.7,5.3,9.2c0.6,2.5,1.2,6.8,2.5,10.1c1.4,3.3-3.9-9.5-3.3-9.5   S100.5,207.2,100.5,207.2z"/>
	<path fill="#3B2416" d="M102.1,210.4c0.2,0.5,0,4.1,1.2,6c1.2,1.9,3.5,5.9,3.5,5.9l-2.4-7.4L102.1,210.4z"/>
	<path fill="#3B2416" d="M152.3,199.7c0,0,3.3,1.6,6,1.1c0.8-0.1,0.5,0.2,2.4-0.4c4.8-1.5,11.8,0.4,14-0.1c7.2-1.4,5.1-2.2,1.9-4.2   c-3.2-2-5.9-6.4-10.1-3.5C162.6,195.2,152.3,199.7,152.3,199.7z"/>
	<path fill="#472D1F" d="M140.1,185.2c0,0-9.1,1.6-9,10.2c0,6.2,10.6,4,11,2.8c0.5-1.2-3.5,0-4.8-5.2   C135.9,187.7,140.1,185.2,140.1,185.2z"/>
	<path fill="#3B2416" d="M157.1,200c0,0,0.7,0.8-1.9,0.3c-2.3-0.4-3.2-1.5-8.7-2c-7.4-0.6-11.1,0.3-8-1.7c3.2-2,5.9-6.4,10.1-3.5   C152.8,195.9,150.6,195.9,157.1,200z"/>
	<path fill="#231F20" d="M137.8,198.3c-0.8,0.8,1.9-2.5,3.2-3.7c2.9-2.7,5.6-0.7,5.6-0.7s-2.6-0.5-3.8,0.2   C141.6,194.9,139.7,196.6,137.8,198.3z"/>
	<path fill="#2F1809" d="M174.1,186.9c0.3,0.1,7.1,1.7,7.1,9.4c0,5.7-10,4.4-10.4,3.3c-0.4-1.1,3.7-0.7,4.9-5.6   C176.9,189.2,174.1,186.9,174.1,186.9z"/>
	<path fill="#472D1F" d="M173.6,184.9c0,0,6.8,1,6.8,9.9c0,6.4-11.2,4.9-11.7,3.7c-0.5-1.2,4.1-0.8,5.5-6.2   C175.5,186.9,173.6,184.9,173.6,184.9z"/>
	<path fill="#231F20" d="M158,199.7c0,0,0.2-0.5,5.3-1.2c7.4-1,13.4,0.3,10.5-2.1c-2.9-2.4-5.5-9-10-6.5   C159,192.6,158,199.7,158,199.7z"/>
	<path fill="#231F20" d="M173.4,197.9c0.9,0.7-2.1-2.2-3.6-3.3c-3.2-2.3-6.5,1.1-6.5,1.1s3.3-2,4.7-1.3   C169.2,194.9,171.4,196.4,173.4,197.9z"/>
	<path fill="#231F20" d="M153.4,199.9c0,0,0-2.4-6.7-2.6c-7.3-0.2-12,1-9-1.3c3-2.2,5.6-7.7,9.9-5   C152.2,193.9,153.4,199.9,153.4,199.9z"/>
	<path fill="#5F3817" d="M179.5,192c-1.9-6.8-12.8-9.8-12.8-9.8l-9-19.1c0,0-0.4,1.8-0.9,4.6c-0.1-2.4-0.2-3.9-0.2-3.9L144.8,182   c0,0-10.7,3.4-12.6,10.1c-2.1,7.5,5.2,6.8,9.4,6.6c0.9,0,0.3-0.6,0.1-1c0,0-5.1,0-0.4-2.9c2.6-1.6,6.2-1.6,9.3,1.9   c1.4,1.6,0.9,1.4,1.4,2c0.5,0.7,1.3,1,2.2,1.1c0.2,0.2,0.5,0.4,0.9,0.3c5.8-0.6,4-0.5,7.2-3.5c1.9-1.8,4.6-4.4,7.4-2.1   c6.5,5.4,1.9,1.3,1.4,2.7c0,0-1.5,1.7-0.5,1.8C174.7,199.3,181.6,199.5,179.5,192z"/>
	<image width="91" height="60" xlink:href="3E0D009D103DC2AB.png" transform="matrix(1 0 0 1 111 214)">
	</image>
	<path fill="#3B2416" d="M152.7,245.4c0,0,1.5,2,4.2,2c2.4,0,4.2-1.4,5.2-2C163,244.8,152.7,245.4,152.7,245.4z"/>
	<path fill="#2F1809" d="M166.6,246.3c-2.4-1.5-7.6-1.5-9.2-1.5c-1.7,0-6.8,0-9.2,1.5c-2.9,1.8,2-1,4.9-0.8c1.6,0.1,4.1,0.7,4.1,0.7   c0.9-0.3,2.9-0.5,4.6-0.7C164.6,245.3,169.5,248.2,166.6,246.3z"/>
	<path fill="#F1F2F2" stroke="#231F20" stroke-width="0.15" stroke-miterlimit="10" d="M170.5,167c0,0,4.6-3.3,11-2.7   c6.4,0.6,14.9,4.6,14.9,4.6s-4.6-2.3-13.6-0.9C176.4,169,170.5,167,170.5,167z"/>
	<g>
		<path fill="none" d="M180.6,164.8c-0.5,0-0.9,0.4-0.9,0.9c0,0.5,0.4,0.9,0.9,0.9c0.5,0,0.9-0.4,0.9-0.9    C181.5,165.2,181.1,164.8,180.6,164.8z"/>
		<path fill="#2D1707" d="M179,164c-0.6,0.7-0.9,1.6-0.9,2.5c0,0.7,0.2,1.3,0.5,1.8c1.4,0,2.8,0,4.3-0.3c1.2-0.2,2.4-0.3,3.4-0.4    c0.1-0.4,0.2-0.8,0.2-1.2c0-0.5-0.1-1-0.3-1.5c-1.6-0.5-3.1-0.8-4.6-1C180.7,164,179.8,164,179,164z M180.6,166.6    c-0.5,0-0.9-0.4-0.9-0.9c0-0.5,0.4-0.9,0.9-0.9c0.5,0,0.9,0.4,0.9,0.9C181.5,166.2,181.1,166.6,180.6,166.6z"/>
	</g>
	<path fill="#231F20" d="M159.2,204.6c0,0,2.1-1.9,4-2c6.6-0.3,8.4,2.7,14.2,5.5c6.8,3.3,11.5,5.7,16,7.2c3.1,1.1,2.3,1.4,2.4,1.5   c0.6,0.4,0.9,0.7-3.8,0.4c-18.7-1.2-22-5.9-28.5-6.3c-1.6-0.1-5.1,2.2-5.1,2.2s0.3-3.2,0.5-5.1   C158.9,206.3,159.2,204.6,159.2,204.6z"/>
	<path fill="#3B2416" d="M219.5,190.5c0,0-0.5,6.7-1,10.4c-0.6,3.7-0.7,5.4-0.7,5.4s1.1-2.6,2.1,0c1,2.6,2.1-3,2.1-5.4   C222.1,195.8,219.5,190.5,219.5,190.5z"/>
	<path fill="#3B2416" d="M219.9,187.6c0,0,4.8,4.3,4.4,10.1c-0.4,5.8-3.7,11.8-3.7,11.8s-0.1,1.4,0.7,2.3c1.2,1.4,1.9-1.7,1.9-1.7   s2.1-11.2,4.2-14.4c2-3.1,4.8-6.5,2.9-11.1c-1.5-3.6-4.8-5-6.9-3.9C220,182.6,219.9,187.6,219.9,187.6z"/>
	<path fill="#3B2416" d="M217.8,210.3c0,0,0.3-1.8,1.2,0.7c0.9,2.5,0,2.3,2.2,3.4c1.1,0.6-3.2,1.5-3.4-0.5   C217.6,211.9,217.8,210.3,217.8,210.3z"/>
	<path fill="#2D1707" d="M219.5,187.1c0,0,1.8-7.7,5.9-6.7c5.1,1.2,5.5,7.6,5.5,7.6s-1.5-6.3-5.5-6.3c-2.3,0-3.3,7-3.8,7.6   C221.2,190,219.5,187.1,219.5,187.1z"/>
	<path fill="#2D1707" d="M222,190.2c0,0,3.4,5,3.4,7.6c0,1.6-3.8,10.7-4.6,11.3c-0.8,0.6,4.5-7.5,2.9-13.6   C222.5,190.5,222,190.2,222,190.2z"/>
	<path fill="#3B2416" d="M157.5,224.8l-0.6,3.6c0,0,3.1,2,11.3,1.2c4.3-0.5,9.1-2.6,16.3-6.3c3.5-1.8,9.4-5,9.7-5.1   c0.3-0.2-2.5,1.8-10.6,2.9c-8,1-21.3,1.1-23,2.5C156.5,226.8,157.5,224.8,157.5,224.8z"/>
	<path fill="#F1F2F2" stroke="#231F20" stroke-width="0.15" stroke-miterlimit="10" d="M141.2,167c0,0-4.6-4-11-3.3   c-6.4,0.7-15.1,5.2-15.1,5.2s4.7-2.7,13.7-0.8C135.3,169.3,141.2,167,141.2,167z"/>
	<path fill="#231F20" d="M154.3,204.5c0,0-0.4-0.7-2.2-1.1c-6.1-1.3-10.3,4.1-19.4,7.4c-7.4,2.7-8.7,3.5-13.7,4.8   c-2.6,0.7-1.3,1.8,3.5,1.5c18.7-1,24.6-4.8,26.3-5.1c2.2-0.4,5.9,1.1,5.9,1.1s-0.5-3.2-0.4-4.4   C154.3,207.7,154.3,204.5,154.3,204.5z"/>
	<path fill="#231F20" d="M172.2,235.7c-3.4,1.3-10.1,2.7-15,2.8c-4.9,0.1-12.3-1.5-15.7-2.8c-1.4-0.5-0.3,0.1-0.1,0.4   c0.9,1.2,9.9,6.5,15.8,6.6c5.8,0.1,14.2-5.4,15.1-6.6C172.5,235.8,173.6,235.2,172.2,235.7z"/>
	<path fill="#231F20" d="M183.5,261.2c-4.3,3.3-15.6,0.6-24.8,0.7c-11.4,0.2-22.5,3.2-26.8-0.1c-4.6-3.5-13.7-10.9-13.7-10.9   s17,19.4,20.9,21.8c6.3,3.9,16.1,4.1,17.9,4c1.8-0.1,15.8,0.2,21-5.9c2.9-3.5,20.3-19.1,20.3-19.1S188,257.7,183.5,261.2z"/>
	<path fill="#3B2416" d="M95.3,190.5c0,0,0.5,6.7,1,10.4c0.6,3.7,0.7,5.4,0.7,5.4s-1.1-2.6-2.1,0c-1,2.6-2.1-3-2.1-5.4   C92.8,195.8,95.3,190.5,95.3,190.5z"/>
	<path fill="#3B2416" d="M94.9,187.6c0,0-4.8,4.3-4.4,10.1c0.4,5.8,3.7,11.8,3.7,11.8s0.1,1.4-0.7,2.3c-1.2,1.4-1.9-1.7-1.9-1.7   s-2.1-11.2-4.2-14.4c-2-3.1-4.8-6.5-2.9-11.1c1.5-3.6,4.8-5,6.9-3.9C94.8,182.6,94.9,187.6,94.9,187.6z"/>
	<path fill="#3B2416" d="M97.1,210.3c0,0-0.3-1.8-1.2,0.7c-0.9,2.5,0,2.3-2.2,3.4c-1.1,0.6,3.2,1.5,3.4-0.5   C97.3,211.9,97.1,210.3,97.1,210.3z"/>
	<path fill="#2D1707" d="M95.3,187.1c0,0-1.9-7.7-5.9-6.7c-5.1,1.2-5.5,7.6-5.5,7.6s1.5-6.3,5.5-6.3c2.3,0,3.3,7,3.8,7.6   C93.6,190,95.3,187.1,95.3,187.1z"/>
	<path fill="#2D1707" d="M92.8,190.2c0,0-3.4,5-3.4,7.6c0,1.6,3.8,10.7,4.6,11.3c0.8,0.6-4.5-7.5-2.9-13.6   C92.3,190.5,92.8,190.2,92.8,190.2z"/>
	<path fill="#3B2416" d="M157.4,224.8l0.6,3.6c0,0-3.1,2-11.3,1.2c-4.3-0.5-9.1-2.6-16.3-6.3c-3.5-1.8-9.5-5-9.7-5.1   c-0.3-0.2,2.5,1.8,10.6,2.9c8,1,21.3,1.1,23,2.5C158.4,226.8,157.4,224.8,157.4,224.8z"/>
	<path fill="#A25A5A" d="M160.4,218.2c-1.6-0.5-2.5,0.3-3,1.5c-0.5-1.3-1.4-2.2-3-1.5c-4.5,1.8-33.2,0.9-33.2,0.9s8.4,2.9,10.4,3.5   c2,0.6,7.4,0.9,10.7,1.5c3.4,0.6,5.2,1.9,8.6,1.3c1.2-0.2,4.3,0.9,6,1.2c0.1,0,0.1,0.1,0.2,0.1c0.1,0,0.2,0,0.2,0   c0.1,0,0.2,0,0.2,0c0.1,0,0.2-0.1,0.2-0.1c1.7-0.3,4.7-1.4,6-1.2c3.4,0.6,5.3-0.7,8.6-1.3c3.4-0.6,8.7-0.9,10.7-1.5   c2-0.6,10.4-3.5,10.4-3.5S164.8,219.7,160.4,218.2z M157.4,225.2C157.4,225.2,157.4,225.2,157.4,225.2L157.4,225.2L157.4,225.2   C157.4,225.2,157.4,225.2,157.4,225.2z"/>
	<path fill="#F1F2F2" d="M152.9,222.2c0,0-3.3-0.2-3.7,2.8c-0.3,3-0.3,4.6-0.3,4.6l6.5,0.4c0,0,0.3-4.3,0-5.2   C154.9,222.7,152.9,222.2,152.9,222.2z"/>
	<path fill="#F1F2F2" d="M148.1,223.2c0,0-2-1-3.2-0.8c-1.2,0.2-1.1,1.1-1.1,2.3c0,1.2,1.7,3.8,1.7,3.8s2.1-0.6,2.6-1.7   C148.6,225.7,148.1,223.2,148.1,223.2z"/>
	<path fill="#F1F2F2" d="M142.4,222.6c0,0-2-1-3.2-0.7c-1.2,0.2-1.1,1.1-1,2.4c0.1,1.2,1.9,3.8,1.9,3.8s2.1-0.6,2.5-1.8   C143,225.1,142.4,222.6,142.4,222.6z"/>
	<path fill="#F1F2F2" d="M137.2,222.7c0,0-1.5-0.7-2.4-0.6c-0.9,0.2-0.8,0.9-0.8,1.8c0,0.9,1.4,2.9,1.4,2.9s1.6-0.5,1.9-1.4   C137.7,224.5,137.2,222.7,137.2,222.7z"/>
	<path fill="#F1F2F2" d="M133,222.5c0,0-1.1-0.7-1.7-0.6c-0.7,0.1-0.7,0.6-0.7,1.3c0,0.7,0.8,2.2,0.8,2.2s1.2-0.2,1.5-0.8   C133.2,223.9,133,222.5,133,222.5z"/>
	<path d="M211.4,117.5c-12.5-25.4-40.5-33.5-53.4-33c-12.8,0.5-42.6,8.2-54.4,33c-14.5,30.3-12.7,45.2-10,54.7   c2,7.4,1.8,14.9,1.8,14.9s0.3-32.1,1.7-35.1c1.4-3,7.9-17.6,9.7-20.2c1-1.3,5.1-13.6,5.1-13.6s12-9.9,45.4-9.6   c33.5,0.4,45.9,9.8,45.9,9.8s3.9,13.3,4.9,14.6c1.8,2.6,6.2,17.4,7.6,20.4c1.4,3,3.6,31.7,3.6,31.7s1.8-5.3,2.2-13   C222,159.5,226.3,147.7,211.4,117.5z"/>
	<path fill="#F1F2F2" d="M161.3,222.2c0,0,3.3-0.4,3.8,2.6c0.5,3,0.5,4.5,0.5,4.5l-6.4,0.7c0,0-0.5-4.3-0.3-5.2   C159.3,222.8,161.3,222.2,161.3,222.2z"/>
	<path fill="#F1F2F2" d="M166.5,222.7c0,0,2-1,3.2-0.8c1.2,0.2,1.1,1.1,1.1,2.3c0,1.2-1.8,3.8-1.8,3.8s-2.1-0.6-2.6-1.7   C166,225.1,166.5,222.7,166.5,222.7z"/>
	<path fill="#F1F2F2" d="M172,222.6c0,0,2-1,3.2-0.7c1.2,0.2,1.1,1.1,1,2.4c-0.1,1.2-1.9,3.8-1.9,3.8s-2.1-0.6-2.5-1.8   C171.4,225.1,172,222.6,172,222.6z"/>
	<path fill="#F1F2F2" d="M177.2,222.9c0,0,1.5-0.7,2.4-0.6c0.9,0.2,0.8,0.9,0.8,1.8c0,0.9-1.4,2.9-1.4,2.9s-1.6-0.5-1.9-1.4   C176.7,224.8,177.2,222.9,177.2,222.9z"/>
	<path fill="#F1F2F2" d="M181.4,222.5c0,0,1-0.7,1.8-0.6c0.7,0.1,0.7,0.6,0.7,1.3c0,0.7-0.8,2.2-0.8,2.2s-1.2-0.2-1.5-0.8   C181.2,223.9,181.4,222.5,181.4,222.5z"/>
	<path fill="#472704" d="M183.9,223.2c-7.3,3.3-24.4,4.2-27,6.2c-2.7-2-19.7-2.9-27-6.2c-8.2-3.7-11.6-5.5-11.3-5.3   c0.1,0.1,2.6,1.1,3.4,1.8c1.4,1.3,4.8,4.6,6.6,5.9c7.1,5.2,11.9,8.4,16.4,9.6c7.1,1.8,10.8,0.9,11.9,0.6c1.1,0.4,4.8,1.3,11.9-0.6   c4.6-1.2,9.3-4.3,16.4-9.6c1.8-1.3,5-4.7,5.6-6.1c0.4-0.9,5.8-1.5,5.8-1.5C197,217.7,192.1,219.5,183.9,223.2z"/>
	<path fill="#3B2416" d="M151.1,163.3c0.4,0.2,0,7.4-1.5,10.4c-1.8,3.5,3-3,2.9-5.9C152.3,164.9,151.1,163.3,151.1,163.3z"/>
	<image width="8" height="17" xlink:href="3E0D009D103DC2AD.png" transform="matrix(1 0 0 1 161 163)">
	</image>
	<g>
		<path fill="none" d="M129.5,166c0.5,0.2,1-0.1,1.2-0.6c0.2-0.5-0.1-1-0.6-1.2c-0.5-0.2-1,0.1-1.1,0.6    C128.8,165.4,129,165.9,129.5,166z"/>
		<path fill="#2D1707" d="M135,168.2c0-0.1,0.1-0.2,0.1-0.3c0.5-1.4,0.2-2.9-0.6-3.9c-1.3-0.3-2.9-0.4-4.5-0.3    c-0.7,0.1-1.5,0.2-2.2,0.4c-0.3,0.4-0.5,0.8-0.6,1.2c-0.3,0.8-0.3,1.7-0.1,2.5c0.5,0.1,1,0.2,1.6,0.3    C130.9,168.4,133.1,168.4,135,168.2z M128.9,164.9c0.2-0.5,0.7-0.8,1.1-0.6c0.5,0.2,0.7,0.7,0.6,1.2c-0.2,0.5-0.7,0.8-1.2,0.6    C129,165.9,128.8,165.4,128.9,164.9z"/>
	</g>
	<g>
		<polygon fill="#48484A" points="95.5,210 97.4,213.3 94.9,216.2 92.6,212.9   "/>
		<image width="5" height="7" xlink:href="3E0D009D103DC2AF.png" transform="matrix(1 0 0 1 92 209)">
		</image>
		<image width="5" height="5" xlink:href="3E0D009D103DC2AC.png" transform="matrix(1 0 0 1 92 210)">
		</image>
	</g>
	<g>
		<polygon fill="#48484A" points="218.8,210.5 216.9,213.8 219.5,216.7 221.7,213.3   "/>
		<image width="6" height="7" xlink:href="3E0D009D103DC2B4.png" transform="matrix(1 0 0 1 217 210)">
		</image>
		<image width="4" height="5" xlink:href="3E0D009D103DC2B5.png" transform="matrix(1 0 0 1 218 211)">
		</image>
	</g>
	<g>
		<image width="50" height="33" xlink:href="3E0D009D103DC2B7.png" transform="matrix(1 0 0 1 101 153)">
		</image>
		<image width="51" height="33" xlink:href="3E0D009D103DC2B3.png" transform="matrix(1 0 0 1 159 153)">
		</image>
		<image width="7" height="10" xlink:href="3E0D009D103DC2BB.png" transform="matrix(1 0 0 1 145 167)">
		</image>
		<image width="6" height="10" xlink:href="3E0D009D103DC2D0.png" transform="matrix(1 0 0 1 159 167)">
		</image>
		<g>
			<g>
				<path fill="#231F20" d="M211.8,157c0,0-10.9-5.7-31.2-3.4c-16.3,1.8-21.1,7.4-21.1,7.4h-6.6v4.9l5.8,0.1c0,0,5.1,16.5,12.5,19.1      c5.1,1.8,21.2,2.5,27.3-0.2c11.3-5,11-20.9,11-20.9l5.2,8.3l1.7,0.8l3.8,6.6l0.5-3L211.8,157z M203,179.1      c-4.5,5.1-7.1,4.9-19.2,5.1c-10.3,0.2-17.3-0.8-22.1-15.2c-1.4-4.2-0.1-8-0.1-8s9.5-8.1,39.8-4.7c2.7,0.3,5.6,3.6,5.6,7.5      C207.1,167.2,204.8,177.1,203,179.1z"/>
			</g>
			<g>
				<path fill="#231F20" d="M92.8,171.8l1.3,4.1l0,0l1.5-3.6l5.2-8.3c0,0-0.3,15.9,11,20.9c6.1,2.7,22.1,2,27.3,0.2      c7.4-2.6,12.5-19.1,12.5-19.1l5.8-0.1v-4.9h-6.6c0,0-4.9-5.6-21.1-7.4c-20.3-2.3-31.2,3.4-31.2,3.4L92.8,171.8z M103.1,163.7      c0-3.8,3-7.2,5.6-7.5c30.3-3.4,39.8,4.7,39.8,4.7s1.3,3.8-0.1,8c-4.9,14.3-11.8,15.4-22.2,15.2c-12-0.2-14.6,0-19.2-5.1      C105.5,177,103.1,167.1,103.1,163.7z"/>
			</g>
		</g>
	</g>
	<path fill="#5C291F" d="M184.2,222.4c-7.3,3.3-24.3,4.2-27,6.2c-2.6-2-19.7-2.9-27-6.2c-8.2-3.7-11.4-5.3-11.1-5.1   c0.1,0.1,8,6.2,9.8,7.5c7.1,5.2,11.9,8.4,16.4,9.6c7.1,1.8,10.8,0.9,11.9,0.6c1.1,0.4,4.8,1.3,11.9-0.6c4.6-1.2,9.3-4.4,16.4-9.6   c1.7-1.3,5.1-5,6.8-5.4c1-0.2,2.3-1.2,2.4-1.3C195,217.9,192.4,218.7,184.2,222.4z"/>
	<path fill="#472704" d="M192.4,218.1c-5,0.1-27.2-4.8-29.3-5.2c-1.4-0.3-6,1.7-6.7,2.7c-0.6-0.9-4.9-2.5-6.3-2.2   c-2.1,0.4-8,3.4-15,4.4c-3.8,0.5-8.6,0.4-12.3,0.3c-2,0-3.9-1.2-3.9-1.2s8.4,5,13.2,4.8c7.9-0.3,16.1-2,19.1-1.3   c0.6,0.1,4.3,1,5.5,1c1.7,0,5.1-0.9,6-1.1c3-0.6,8.8-0.1,20.2,1.5c4.8,0.7,13.9-4.5,13.9-4.5S194.5,218.1,192.4,218.1z"/>
	<path fill="#401D15" d="M192.4,218.6c-5,0.1-27.2-4.7-29.3-5.1c-1.4-0.3-6,1.7-6.7,2.7c-0.6-0.9-4.9-2.5-6.3-2.2   c-2.1,0.4-8,3.4-15,4.4c-3.8,0.5-8.6,0.4-12.3,0.3c-2,0-3.9-1.2-3.9-1.2s8.4,5,13.2,4.8c7.9-0.3,16.1-2,19.1-1.3   c0.6,0.1,4.3,1,5.5,1c1.7,0,5.1-0.9,6-1.1c3-0.7,8.8-0.1,20.2,1.5c4.8,0.7,13.9-5,13.9-5S194.5,218.6,192.4,218.6z"/>
	<path fill="#3B2416" d="M133.8,449.6c0.4,0.1,4.5,0.5,4.5,0.5l-2.2,2l0.2-1.4L133.8,449.6z"/>
	<path fill="#3B2416" d="M138.7,443.1c0.2-0.1,5.5,1.7,5.5,1.7v2.5c0,0,2.5-3.6,2.2-3.5C146,443.8,138.7,443.1,138.7,443.1z"/>
	<polygon fill="#3B2416" points="145.1,436.6 153.3,440.4 152.4,445.1 151.1,441.5  "/>
	<polygon fill="#3B2416" points="154.8,425.5 150.6,424.6 148.8,425.7  "/>
	<polygon fill="#3B2416" points="148.4,428.9 158.5,430.2 153.9,430.7 157.2,434.1  "/>
	<image width="23" height="54" xlink:href="3E0D009D103DC2D3.png" transform="matrix(1 0 0 1 88 334)">
	</image>
	<polygon fill="#3B2416" points="180.8,490.5 189.7,492.4 199.6,490.5 189.7,493.9  "/>
	<polygon fill="#3B2416" points="211.9,496.2 199.6,496.7 190.7,496.3 199.6,497.9  "/>
	<polyline fill="#3B2416" points="201.3,502.9 214.4,500.9 207.9,503.4 200.8,502.9  "/>
	<polygon fill="#20364B" points="130.9,518.1 138.7,533.8 146.4,539.4 135.3,536  "/>
	<polygon fill="#20364B" points="164.7,513.1 160.3,532.5 150.2,540.5 163.2,536.4  "/>
	<path fill="#20364B" d="M191.5,751c-0.4,0.8-3.3-4-3.3-4l11.3-37.4L191.5,751z"/>
	<polygon fill="#20364B" points="189.8,723.4 199.6,695 189.7,713.9  "/>
	<path fill="#20364B" d="M122.2,695c0.1,1.3,9.9,30.1,9.9,30.1l-9.2,12.9l2.5-14.6L122.2,695z"/>
	<path fill="#20364B" d="M223,586.2c-0.9,2.2,4.3,70.1,5.6,71.8c1.3,1.7-1.4,38.7-1.6,40c-0.2,1.3,7.7-39.1,7.7-39.1L223,586.2z"/>
	<path fill="#20364B" d="M76.1,620.2c-0.2,2.6,2.7,40,2.7,40l11.6,70.2L76.1,620.2z"/>
	<path fill="#20364B" d="M71.6,698c-0.3,3.4-4.9,16.7-4.9,16.7l4.9,17.6V698z"/>
	<path fill="#20364B" d="M99.2,497.9c-0.5,2.3-4.7,10.5-5.4,12.6c-0.7,2.2-9.1,12.1-9.1,12.1L99.2,497.9z"/>
	<path fill="#20364B" d="M206.1,507.6c0.1,1.3,0,10.5,0,10.5s11.3,12.7,12.8,14C220.4,533.4,206.1,507.6,206.1,507.6z"/>
	<polygon fill="#20364B" points="158.5,504.7 154.2,522.6 150.2,540.5 155.9,526.8  "/>
	<path fill="#20364B" d="M127.2,569.5c-2.2,2.1-8.1,74.5-8.1,74.5s-3.1,40.3-2.9,43.7c0.2,3.4-0.7-53.3-0.7-53.3L127.2,569.5z"/>
	<polygon fill="#3B2416" points="244.9,402.5 269,400.9 251.5,404.2  "/>
	<polygon fill="#3B2416" points="66.7,376.6 47.4,371.3 58.2,377.3  "/>
</g>
</svg>
